<!DOCTYPE svg PUBLIC "-//W3C//DTD SVG 1.1//EN" "http://www.w3.org/Graphics/SVG/1.1/DTD/svg11.dtd">
<!-- Uploaded to: SVG Repo, www.svgrepo.com, Transformed by: SVG Repo Mixer Tools -->
<svg width="800px" height="800px" viewBox="0 0 32 32" fill="none" xmlns="http://www.w3.org/2000/svg">
<g id="SVGRepo_bgCarrier" stroke-width="0"/>
<g id="SVGRepo_tracerCarrier" stroke-linecap="round" stroke-linejoin="round"/>
<g id="SVGRepo_iconCarrier"> <path d="M31 10V30C31 30.55 30.55 31 30 31H2C1.45 31 1 30.55 1 30V10C1 9.45 1.45 9 2 9H30C30.55 9 31 9.45 31 10Z" fill="#fbe2b1"/> <path d="M4 12L15 23C15.834 23.834 16.167 23.833 17 23L28 12M9.5 22.5L4 28M28 28L22.5 22.5M31 30C31 30.553 30.553 31 30 31H2C1.447 31 1 30.553 1 30V10C1 9.447 1.447 9 2 9H30C30.553 9 31 9.447 31 10V30Z" stroke="#000000" stroke-width="0.22400000000000003" stroke-linecap="round" stroke-linejoin="round"/> </g>
</svg>